<svg xmlns="http://www.w3.org/2000/svg" id="Layer_2" data-name="Layer 2" viewBox="0 0 55.3 41.48"><g id="Layer_1-2" data-name="Layer 1"><path d="M53.93,26.31c.26-.09.97-.29,1.19-.89.23-.6.41-.92-.58-1.55-.99-.63-1.79-1.87-4.12-1.6-2.33.28-2.96,1.24-5.83,1.82-2.87.57-3.43,1.44-4.81,1.86-.42.13-1.87.6-3.78,1.24-.89.21-2.41.41-3.52-.33-1.66-1.11-1.29-1.44-2.59-2.17-1.29-.72-2.33-1.78-2.8-2.55-.47-.67-.83-.78.72-.95.41-.05,1.28-.13,1.91-.4.91-.41.81-.45,1.42-.33.45.09,2.54.14,4.29-.84.71-.4,1.41-.94,1.67-1.22.26-.29.23-.04.11.11-.12.15-.31.41.24.02,2.06-1.47,1.85-1.68,3.26-3.26.29-.32.52-.45.72-.8.2-.36.5-.74.36-.22-.06.22-.08.68.08.38.16-.29.35-.51.73-1.13.15-.24.54-.95,1.01-1.64.32-.47.39-.82.58-1.33.2-.51.33-.67.28-.28-.02.14-.05.42-.1.66-.08.42-.17.72-.22.84-.11.3.01.33.11.14.26-.49.53-1.19.7-1.66.06-.17.17-.36.21-.93.02-.29.19-.31.21.09.01.42.13.53.21.12.07-.37-.03-1.05.08-1.42.12-.37.15-.87.05-1.39-.1-.48.1-.57.47-.96.37-.39,1.52-.7,2.15-.59.63.11.38-.08,1.4.15,1.02.24,2.41.32,2.73.29.23-.02.35-.05.42,0,.22.12.39.24.39.08,0-.16.09-.37-.38-1.14-1.31-1.56-3.88-2.22-4.34-2.37-.46-.16-.65-.24-1-.34-.35-.09-.41-.23-1.41-.86-.99-.63-1.88-.92-2.49-.96-.61-.04-1.09.17-1.64.39-.55.21-1.48.93-1.76,1.07-.28.13-.57.48-.78.57-.21.1-.21.22-.79.62-.58.4-.62.4-1.2.75-.36.22-1.03.45-1.34.57-.31.12-.14.23-.03.2.11-.03.14.04-.08.15-.22.1-.62.28-.92.39-1.26.46-6.67,1.52-7.29,1.68-.18.03-.17.24.01.21.18-.03.22.03-.09.12-2.2.67-6.77.86-8.94,1.32-2.17.46-3.15,1.37-5.17,1.57-2.14.22-2.76,1.04-3.64,1.02-.87-.02-1.26.55-2.49.87-1.04.27-1.08.51-.31.35.77-.16.86.09,1.5-.06.83-.19.56.37.04.47-1.09.22-1.79.31-2.73.67-.94.36-1.34.84-2.74.97-1.4.13-1.42-.04-2.24.24-.33.11-.21.16.09.14.3-.02.59.05.95.05.36,0,.21.08-.12.14-.33.06-.54.13-.08.22.46.09.3.05.46.09.2.05.37.08.57.1.44.04.76.17,1.21.19.45.02.18.16-.06.22-.24.06-.21.3.77.08.52-.12,1.2-.04,1.49,0,.29.03.82-.25,1.22-.16.4.09,3.24.05,3.9.16.66.11,1.39.07,2.09.2.7.13,3.06.41,4.03.57.8.13,1.22.26,1.69.37.48.11.14.19-.34.19-.48,0-.51.28.28.32.79.04.87.3,1.43.36.56.06.16.25-.32.4-.47.15-.34.23.04.21.38-.02.61.15.2.23-.42.08-.99.34-.42.32.57-.02.26.37.79.48.38.08.34.48-.03.59-.37.11-.24.41.09.53.34.12.17.43.51.3.32-.11.38.33.28.54-.48.63-.79.57-.53,1.35.26.78.41.22,1.29,1.33.88,1.11,1.14,1.72,1.45,2.33.31.61-.26.72.31,1.11.57.39.6.46.26.83-.15.16-.27.34-.46.44-.26.13-.7.09-.97.05-.38-.07-.74-.23-1.1-.37-.73-.28-1.48-.47-2.22-.73-1.11-.39-2.22-.77-3.34-1.11-.31-.1-.61-.2-.92-.29-1.38-.41-1.93-1.29-4.81-1.86-2.87-.57-3.5-1.54-5.83-1.82-2.33-.27-3.13.98-4.12,1.6-.99.63-.86,1.02-.64,1.62.22.6.99.72,1.25.82.26.09.34.37.11.83-.22.46-.1.71-.1.71.39,1.01,1.78,1.12,2.82.86,1.77-.43,2.34-.69,3.69-1.18,1.35-.49,5.02.78,8.38,1.79,2,.6,3.34,1.09,5.26,1.68.7.2.86.63.39.78-4.17,1.28-8.76,2.49-11.15,2.84-2.42.36-3.51.31-5.28-.56-1.77-.87-2.8-1.27-4.01-.46-1.21.82-2.3,3.4.63,4.69,1.08.48,1.29.95,1.31,1.53.02.58.34.87,1.17,1.27.83.41,2.44.67,3.54-.38,1.1-1.06,1.19-1.75,3.36-2.6,2.17-.84,1.86-1.01,3.56-1.25,1.7-.24,3.05-1.74,6.23-2.38,2.5-.5,2.19-.62,4.65-1.33.75-.21,1.91-.44,2.8-.18,3.14.88,2.57.97,5.27,1.51,3.18.64,3.93,1.97,5.63,2.21,1.7.24,2.04.58,4.21,1.42,2.17.84,2.26,1.54,3.36,2.6,1.1,1.06,2.71.79,3.54.39.83-.41,1.14-.7,1.17-1.27.02-.58.23-1.05,1.31-1.53,2.93-1.29,1.84-3.87.63-4.69-1.21-.82-2.24-.41-4.01.46-1.77.87-2.86.91-5.28.56-2.42-.36-7.13-1.59-11.33-2.88-.08-.02-.16-.05-.25-.08-.25-.08-.26-.35.1-.46,2.3-.69,3.7-1.22,5.92-1.89,3.36-1.01,7.03-2.27,8.38-1.79,1.35.49,1.92.74,3.69,1.18,1.04.26,2.43.14,2.82-.87,0,0,.12-.26-.1-.72-.22-.46-.15-.73.11-.83ZM53.84,25.27c.05-.71.42-.21.29.13-.12.33-.31.13-.29-.13ZM52.41,4.82c.15.16-.13.15-.27.02-.22-.2.12-.18.27-.02ZM47.98,2.74c.41.15.78.39,1.39.46.61.07.81.3,1.06.51.25.21.52.15.66.32.14.17.48.19.67.38.2.19.1.18-.06.12-.17-.06-.5-.15-.73-.29-.23-.14-.56-.16-.8-.36-.24-.19-.45-.4-.87-.41-.42-.01-.98-.2-1.24-.39-.26-.19-.43-.46-.08-.34ZM5.22,14.2c-.09.1-.3,0-.19-.08.21-.14.28-.02.19.08ZM1.5,24.88c-.07.22-.3.2-.28-.02.05-.49.35-.2.28.02ZM2.48,25.28c-.07.32-.33.5-.33.17,0-.44.4-.49.33-.17ZM2.67,27.73c-.26-.53.57-.43.57,0s-.37.41-.57,0ZM3.31,26.46c-.1.27-.34.33-.31-.05.05-.59.41-.21.31.05ZM4.01,27.57c-.05.27-.33.55-.36.21-.05-.59.41-.48.36-.21ZM4.98,27.62c-.05.27-.51.31-.46.11.1-.43.51-.37.46-.11ZM5.21,25.66c-.16.1-.29.07-.13-.14.16-.21.42-.26.41-.45-.01-.2-.13-.38-.14-.64-.01-.26-.18-.51-.47-.64-.29-.12-.74-.11-1.11.12-.37.23-.68.1-.87.27-.19.17-.43-.07-.59.07-.16.15-.25-.02-.11-.26.14-.23.27-.12.44-.23.2-.13.72-.16.96-.28.24-.12.6-.27,1.11-.28.51-.01.94.43,1.06.55.12.12,0,.32.12.5.12.18-.08.19-.02.4.06.21.02.29-.14.64-.17.34-.34.26-.51.36ZM5.97,27.36c-.1.21-.39.21-.36-.05.05-.53.46-.16.36.05ZM6.87,25.26c.02.18-.06.52-.31.67-.25.15-.37.26-.51.27-.14.01-.22-.11-.04-.18.25-.1.4-.27.46-.5.06-.23-.14-.18-.06-.4.08-.22-.08-.2-.02-.52.06-.33.5-.47.55-.1.06.37-.11.59-.08.77ZM8.5,24.99c-.04.4-.36.04-.41-.28-.12-.8.44-.13.41.28ZM8.93,25.49c-.12-.44.19-.27.24,0,.05.27-.16.27-.24,0ZM9.81,25.65c-.25-.97.22-.37.33,0,.11.37-.22.43-.33,0ZM10.8,26.61c-.44-.6.33-.37.47.03.14.4-.2.34-.47-.03ZM12.06,26.99c-.3-.43.22-.4.33-.11.11.28-.13.39-.33.11ZM12.61,26.24c-.49-.48.27-.43.44-.11.17.31-.22.33-.44.11ZM13.81,27.29c-.49-.51.25-.31.38-.03.14.28-.12.3-.38.03ZM14.58,27.58c-.14-.37.22-.31.22-.17s-.13.4-.22.17ZM15.87,28c-.16.2-.42,0-.27-.26.25-.43.44.06.27.26ZM17.73,28.46c-.08-.62.36-.34.38.03.03.37-.35.2-.38-.03ZM18.71,29.19c-.14-.71.3-.42.3-.17s-.27.33-.3.17ZM19.84,28.68c-.14-.71.3-.2.36.14.05.34-.27.29-.36-.14ZM1.66,35.5c-.04.22-.25.3-.25,0,0-.7.28-.22.25,0ZM1.94,36.89c-.21-.73.57-.44.53.15-.04.59-.38.39-.53-.15ZM3.69,37.58c-.11.37-.39.31-.39-.07,0-.55.5-.29.39.07ZM3.22,36.32c.07-.62.42-.04.28.22-.14.26-.31.03-.28-.22ZM4.34,36.87c.04-.4.39-.07.28.11-.11.18-.31.14-.28-.11ZM4.59,40.03c-.22-.26.04-.39.26-.22.38.31-.04.49-.26.22ZM6.02,39.02c.54.06.19.34-.12.29-.31-.06-.1-.31.12-.29ZM5.98,40.66c-.23-.11-.1-.33.22-.25.42.11.01.36-.22.25ZM6.4,37.13c-.21.31-.33.2-.25-.15.04-.14.14-.35.11-.52-.04-.17.02-.38-.14-.43-.17-.05.04-.2-.17-.23-.2-.04-.09-.16-.31-.17-.21-.01-.32-.14-.57-.28-.44-.26-.85-.49-1.47-.46-.74.04-.35-.11-.05-.24.3-.13.6-.13,1.09-.07.5.06.85.64,1.19.73.34.09.74.11.87.6.12.5-.09.9-.3,1.21ZM7.52,40.03c-.2-.1-.24,0-.45-.18-.21-.19-.11-.41.25-.25.57.25.4.53.2.43ZM7.94,39.29c-.1-.39.21-.35.33-.08.2.43-.23.47-.33.08ZM9.1,38.69c-.22-.3.1-.39.31-.19.35.34-.09.49-.31.19ZM10.93,37.33c-.07-.32.17-.22.26,0,.09.22-.21.23-.26,0ZM13.19,36.46c-.02.25-.26.17-.26-.02,0-.42.28-.22.26.02ZM14.36,36.44c-.14.28-.3.11-.25-.14.08-.4.38-.14.25.14ZM23.22,32.44c-.34.16-1.34.42-1.96.69-.62.27-1.58.79-2.23.84-.65.05-1.52.53-2.14.51-.62-.02-1.41.15-2.05.23-.28.04-.57.15-.82.32-.26.17-.26-.05-.59.15-.33.19-.57.17-.69.39-.12.22-.31-.03-.5.19-.19.22-.35.02-1.18.39-.81.36-1.63.31-2.35.15-.72-.16-.87.55-1.06.9-.19.35-.36.26-.27-.02.16-.48.19-.73.46-1.04.27-.31.96-.39,1.72-.26.76.13,1.2.03,1.78-.23.58-.26,1.27-.35,2.02-.75.74-.41,1.49-.44,2-.57.51-.13,1.11-.34,1.75-.36.64-.02.72-.33,1.53-.44.81-.11,1.21-.28,1.82-.59.6-.31,2.11-.45,2.57-.65.46-.2.51-.02.18.15ZM52.77,37.42c-.09.29-.27.06-.29-.15-.03-.51.37-.15.29.15ZM52.78,36.4c-.12-.56.23-.3.23-.03s-.17.33-.23.03ZM53.38,37.29c-.12-.74.34-.3.34.03s-.28.37-.34-.03ZM53.98,36.19c-.06.38-.2.18-.26-.15-.11-.71.32-.24.26.15ZM52.12,34.42c.54-.23.89-.06,1.05-.15.17-.09.15.13.39.1.24-.04.35.22.55.5.2.28-.17.57-.44.21-.27-.37-.94-.48-1.36-.37-.41.11-.53-.15-.2-.29ZM51.79,36.49c.09-.32.43-.06.29.09-.14.15-.35.15-.29-.09ZM39.12,35.57c-.05.25-.32.22-.31-.07,0-.64.36-.18.31.07ZM40.04,35.32c-.04.21-.22.13-.24-.05-.05-.45.28-.16.24.05ZM47.74,38.67c-.12-.33.26-.22.32.06.06.28-.23.17-.32-.06ZM49.93,39.19c-.05.24-.23.25-.26-.09-.05-.55.2-.53.21-.33.01.2.09.19.05.43ZM50.53,39.69c-.31-.61.22-.41.32-.04.11.37-.15.38-.32.04ZM50.79,38.79c-.16-.4.14-.35.28-.03.14.32-.17.3-.28.03ZM49.52,34.92c.5-.19.97-.46,1.39-.49.43-.02.4.1.05.19-.35.1-.71.12-1.09.32-.38.2-.87.17-.35-.02ZM49.05,38.51c.21-.33.4-.01.18.23-.22.24-.31-.02-.18-.23ZM49,40.22c.12-.35.35-.03.25.2-.11.22-.34.07-.25-.2ZM48.58,37.96c-.12.29-.3.08-.25-.16.09-.42.36-.14.25.16ZM45.41,35.63c.47.12.8.02,1.2-.02.4-.05.42.1.8-.07.38-.17.45-.07.76-.19.31-.12.33.02.12.15-.21.12-.37.23-.87.42-.49.2-.58-.07-1.17.06-.59.12-.97-.13-1.48-.24-.82-.17.16-.22.64-.1ZM44.16,37.27c-.34-.06-.34-.46.04-.39.38.07.58.5-.04.39ZM38.48,34.34c.43-.22.66-.23,1.04-.17.38.06.84-.04,1.12.08.28.12.53.15.76.33.23.17.45.16.66.28.21.12.44.31.73.31.29,0,.36-.05.58.13.22.17.48.18.67.19.2,0,.17.12.04.14-.12.02-.43.02-.62-.09-.19-.11-.29-.19-.73-.18-.44,0-.8-.34-1.13-.27-.34.07-.41-.3-.58-.24-.17.06-.1-.15-.33-.11-.23.05-.15-.25-.33-.2-.18.06-.45-.05-.86-.14-.41-.09-.73.03-.97.13-.24.1-.28-.06-.07-.16ZM36.9,34.32c.06-.29.38-.43.28.05-.05.26-.35.24-.28-.05ZM33.29,33.02c.03.24-.19.16-.25,0-.17-.5.21-.23.25,0ZM26.73,16.12c.21-.44.41-.05.22.15-.19.19-.34.1-.22-.15ZM23.42,12.49c-.27.26-.51.15-.27-.09.24-.24-.03-.16-.43.02-.41.18-.41.06,0-.29.26-.22.28-.04.56-.16.27-.12.62-.19.79-.37.16-.18.27-.18.22,0-.05.19.2.24.38.06.18-.17.45-.26.24.05-.21.31-.51.26-.64.46-.13.21-.41.2-.26-.06.15-.27-.21,0-.59.37ZM23.07,14.66c-.28.28-.38.03-.17-.21.61-.67.45-.07.17.21ZM22.59,13.06c-.26.16-.38-.04-.12-.19.5-.28.38.03.12.19ZM25.4,15.26c-.23.2-.28.05-.12-.15.34-.42.35-.06.12.15ZM25.59,17.37c-.19.21-.34.02-.22-.2.28-.54.41-.01.22.2ZM25.37,13.95c-.17.18-.31-.02-.13-.22.25-.28.3.04.13.22ZM25,10.39c-.26.18-.37.02-.11-.16.58-.39.37-.02.11.16ZM25.11,12.65c-.12.22-.31.05-.25-.06.22-.37.37-.16.25.06ZM24.65,11.07c-.21.2-.28.02-.14-.12.34-.35.35-.07.14.12ZM24.3,12.79c.15-.17.12-.28.29-.49.24-.28.33-.06.21.12-.12.18-.09.29-.31.45-.21.16-.35.08-.2-.09ZM24.7,16.68c.61-.72.46.05.14.32-.32.27-.38-.03-.14-.32ZM24.62,18.89c.35-.64.72-.22.41.17-.32.38-.53.05-.41-.17ZM24.94,21.21c.43-.58.55-.53.79-.5.24.03.48.04.74-.04.26-.08.3.09.09.15-.21.06-.48.14-.87.09-.38-.05-.44.32-.68.53-.24.21-.25,0-.07-.23ZM26.64,14.29c.37-.37.49-.04-.06.62-.55.66-.59.27-.42,0,.17-.26.1-.29-.11-.14-.21.14-.29.02-.11-.28.25-.43.42-.35.35-.18-.07.17-.01.33.36-.04ZM26.76,12.3c.14-.2.43-.39.24.02-.09.19-.14.46-.29.76-.15.3-.26.06-.15-.15.11-.21.06-.43.2-.63ZM26.69,11.78c.53-.46.23.1.03.26-.2.15-.21-.1-.03-.26ZM27.52,15.17c-.16.05-.26-.06-.1-.14.16-.07.25-.17.34-.27.09-.09.32-.2.14.02-.12.15-.22.34-.38.39ZM27.48,15.8c-.22.22-.23-.06-.08-.21.27-.28.31-.01.08.21ZM27.98,13.65c.26-.4.26-.11.1.11-.16.22-.23.07-.1-.11ZM28.15,12.73c-.2.23-.2-.15-.07-.29.38-.44.27.06.07.29ZM28.09,12.15c-.14.24-.32.38-.32.2s.03-.29.18-.56c.27-.49.28.12.14.37ZM27.61,14.48c-.26.16-.3-.14-.12-.21.73-.26.38.05.12.21ZM27.67,11.96c-.12.19-.06.3-.2.6-.14.29-.44.26-.32.03.12-.22.05-.35.26-.63.26-.36.38-.2.26,0ZM27.21,13.42c-.13.28-.24-.03-.17-.33.07-.34.3.05.17.33ZM26.3,18.71c-.18.15-.2-.11-.09-.24.19-.24.27.09.09.24ZM26.56,15.44c.54-.94.42,0,.19.3-.23.29-.38.03-.19-.3ZM26.92,17.45c.14-.35.34.01.19.16-.15.15-.26.03-.19-.16ZM27.35,20.7c-.38.03-.18-.24.09-.21.34.04.29.18-.09.21ZM27.64,19.26c-.16.16-.53.1-.34-.11.39-.44.5-.05.34.11ZM27.92,16.81c-.27.22-.47.08-.31-.2.42-.74.58-.02.31.2ZM28.35,17.7c-.27.22-.4.05-.18-.22.23-.27.44,0,.18.22ZM28.51,14.69c-.2.26-.46.04-.24-.28.43-.62.43.03.24.28ZM28.75,15.81c.19-.33.35,0,.12.25-.24.24-.26,0-.12-.25ZM29.55,8.58c-.19.16-.23-.07-.01-.24.33-.27.2.09.01.24ZM29.92,9.08c-.15.15-.4.04-.22-.08.59-.4.37-.07.22.08ZM29.52,12.97c-.07.11-.23.02-.12-.14.11-.15.19.02.12.14ZM29.3,14.8c-.22.19-.27-.08-.1-.26.55-.55.32.07.1.26ZM29.63,7.9c-.2.3-.61.37-.4.1.21-.27.67-.52.4-.1ZM29.07,11.97c-.15.2-.3-.06-.14-.24.39-.46.29.05.14.24ZM28.71,18.3c.04-.12.19-.12.16,0-.04.12-.25.26-.16,0ZM29.02,19.78c-.26.16-.24-.07-.05-.23.47-.39.31.07.05.23ZM29.32,16.46c-.32.25-.56.18-.27-.13.47-.53.59-.12.27.13ZM29.82,18.03c-.19.26-.39.05-.21-.26.35-.6.41,0,.21.26ZM30,12.52c-.18.2-.39,0-.19-.18.29-.27.37-.02.19.18ZM29.93,11.63c-.26.16-.24-.07-.05-.23.47-.4.31.07.05.23ZM30.07,10.42c-.16.22-.23.07-.11-.11.26-.4.26-.11.11.11ZM30.28,8.85c.43-.46.31.02.14.19-.17.17-.3-.02-.14-.19ZM30.68,16.08c-.21.36-.4.12-.26-.23.24-.57.47-.12.26.23ZM30.96,9.47c-.19.23-.22-.1.01-.32.4-.37.18.09-.01.32ZM31.16,10.37c-.14.23-.27.06-.19-.18.18-.5.33-.05.19.18ZM30.86,13.73c.18-.32.31,0,.19.2-.12.19-.3,0-.19-.2ZM31.22,18.43c-.25.18-.44-.02-.12-.24.46-.31.37.06.12.24ZM31.27,17.1c-.26.26-.41,0-.2-.24.57-.65.46-.01.2.24ZM31.49,15.19c.19-.2.16.04.08.17-.08.13-.07.21-.24.26-.17.05.01-.28.16-.43ZM31.68,15.85c-.1.19-.24.08-.14-.11.35-.67.24-.08.14.11ZM31.7,14.76c-.13.09-.04.11-.24.25-.2.14-.45-.02-.17-.22.28-.2.42-.25.52-.35.11-.1.19-.02.11.08-.08.1-.11.15-.23.24ZM33.17,8.64c.14-.12.51-.2.35.01-.18.25-.26.12-.47.35-.21.23-.28.32-.4.49-.12.17-.33.08-.13-.22.2-.3.21-.65.04-.41-.18.23-.32.41-.5.59-.18.17-.34.1-.11-.22.23-.32.15-.53.48-.66.33-.13.38-.18.57-.38.19-.2.21,0,.05.23-.17.23-.01.34.13.22ZM33.77,8.23c-.21.17-.25-.19-.08-.32.35-.26.29.16.08.32ZM34.02,7.36c.3-.33.32.04.12.24-.19.2-.3-.04-.12-.24ZM33.6,9.04c.2-.26.15-.43.38-.65.22-.22.34-.12.2.1-.14.22.08.27.24.07.15-.2.25.06.14.23-.11.17-.02.21.07.1.09-.11.28-.02.05.22-.3.31-.62.34-.45,0,.18-.34.02-.37-.27-.04-.29.33-.55.22-.35-.04ZM33.12,11.12c.17-.41.24,0,.13.16-.11.16-.22.05-.13-.16ZM32.9,10.63c.14-.2.03-.35.3-.56.4-.32.51-.1.4.08-.11.18-.14.32-.38.56-.25.25-.46.12-.32-.09ZM33.14,12.13c.06-.22.11-.38.25-.52.14-.15.32-.02.2.09-.17.16-.13.27-.23.47-.1.19-.29.2-.22-.04ZM33.48,12.71c.12-.32.27-.09.19.07-.08.16-.27.15-.19-.07ZM33.94,13.43c-.11.23-.37.22-.34.03.09-.77.45-.26.34-.03ZM33.77,15.93c-.36.2-.4-.08-.19-.29.71-.72.56.09.19.29ZM33.98,11.88c-.13.23-.34-.03-.17-.24.27-.33.3.01.17.24ZM34.01,10.52c-.12.22-.03.3-.27.56-.24.26-.33-.21-.15-.38.11-.1.11-.12.23-.3.11-.18.32-.1.19.12ZM32.47,10.91c-.19.13-.23.2-.39.29-.16.08-.25-.09-.03-.2.22-.11.35-.26.44-.49.09-.23.37-.64.3-.25-.05.27-.14.52-.33.65ZM32.42,11.48c-.25.12-.29-.07,0-.25.45-.27.25.13,0,.25ZM32.31,10.09c.26-.45.21,0,.11.2-.11.19-.23.01-.11-.2ZM32.38,8.32c-.21.13-.29.23-.45.38-.15.15-.27.02-.17-.15.11-.17.2-.22.5-.39.3-.17.33.02.12.16ZM31.8,10.67c.23-.08.46.02.2.12-.3.12-.3.2-.47.41-.17.21-.37.1-.22-.1.15-.2.26-.35.49-.43ZM31.55,13.05c-.2.28-.36.04-.18-.28.33-.59.38,0,.18.28ZM31.88,15.03c.15-.22.36-.41.45-.51.08-.1.27-.17.11.11-.09.17-.3.36-.37.53-.07.17-.34.09-.19-.13ZM32.22,15.7c-.12.24-.33.1-.18-.21.2-.41.29-.03.18.21ZM32.14,16.07c.47-.52.49.07.07.3-.42.23-.26-.09-.07-.3ZM32.34,17.52c-.27.22-.46-.02-.18-.28.72-.67.45.06.18.28ZM32.93,19.04c-.16.22-.23.07-.11-.11.27-.4.27-.11.11.11ZM33.04,17.45c-.24.17-.25-.1-.13-.22.37-.39.37.05.13.22ZM33.16,14.72c-.07.16-.23.49-.35.56-.12.06-.29-.04-.07-.33.22-.29.62-.71.42-.23ZM33.09,13.5c.32-.68.45-.04.19.29-.26.33-.37.09-.19-.29ZM33.3,15.02c.65-1.26.56-.18.27.2-.28.39-.43.1-.27-.2ZM33.45,16.54c.42-.81.54-.11.32.16-.22.28-.46.1-.32-.16ZM34.15,17.54c-.24.21-.36-.02-.18-.29.38-.56.42.08.18.29ZM34.3,12.32c-.09.25-.26-.03-.18-.23.21-.52.26-.02.18.23ZM34.22,11.19c-.19.07-.21-.18-.12-.33.04-.07.11-.28.22-.43.12-.15.06-.3.25-.53.19-.23.3-.09.16.12-.14.21.11.1.29-.04.18-.14.38-.15.22.07-.16.23-.33.1-.41.32-.09.22-.3.16-.37.35-.07.18.2.29.38.16.18-.13.21.16.02.32-.19.17-.06.23-.2.43-.14.2-.29,0-.2-.21.1-.2-.05-.31-.24-.24ZM36.36,7.17c-.13.2-.28.03-.15-.14.26-.34.28-.06.15.14ZM36.68,7.63c.1.15-.13.22-.24.09-.15-.17.14-.24.24-.09ZM36.36,6.46c-.18.36-.35.46-.38.62-.03.17-.19.15-.18-.1,0-.28.26-.49.38-.64.12-.15.35-.24.18.12ZM36.11,8.82c-.07.15-.04.17-.19.43-.15.26-.32.23-.29.05.02-.18.1-.27.25-.52.14-.22.3-.1.23.05ZM38.37,11.25c.02.16.1.32.02.49-.08.17-.17,0-.19-.2-.04-.43.14-.45.17-.29ZM38.16,11.03c-.02.13-.16.17-.15-.01.02-.26.04-.39.09-.48.06-.09.27-.11.19.11-.07.23-.12.26-.14.38ZM38.37,10.83c.04-.12.19-.12.16,0-.04.12-.25.26-.16,0ZM38.47,11.98c.19-.58.23.09.15.4-.08.31-.26.5-.27.24-.02-.27.05-.43.12-.64ZM38.56,11.25c.07-.52.22-.07.17.16-.06.23-.19.02-.17-.16ZM38.68,12.75c.18-.35.27-.12.19.05-.07.16.03.24-.2.43-.23.19-.18-.11,0-.48ZM38.6,7.8c.17-.15.35-.24.46-.48.11-.24.27-.14.17.09-.11.24-.28.42-.44.53-.16.11-.38.02-.19-.15ZM38.76,7.43c-.25.13-.32-.08-.18-.25.43-.53.43.11.18.25ZM38.88,6.6c-.17.32-.39.2-.32.02.07-.17.18-.33.02-.23-.17.1-.25-.1-.07-.31.66-.73.68-.33.6-.18-.08.16-.07.38-.24.7ZM38.43,9.47c.57-.16.27.2-.06.29-.33.1-.27-.2.06-.29ZM38.1,8.02c-.28.2-.25-.07-.02-.31.39-.4.3.11.02.31ZM38.04,9.34c-.06.17-.14.39-.36.56-.22.16-.35,0-.25-.1.11-.11.28-.28.38-.44.2-.32.29-.18.23-.02ZM37.9,10.61c0,.25-.07.59-.17.25-.05-.18,0-.27.04-.39.03-.12.13-.11.13.14ZM37.44,11.4c-.08.23-.04.29-.21.61-.18.32-.37.09-.27-.16.09-.25.19-.37.31-.65.13-.32.26-.03.18.2ZM36.62,14.49c-.15.14-.14-.06-.03-.28.47-.91.52-.07.4.36-.12.43-.27.24-.23.04.04-.2,0-.26-.14-.12ZM36.6,12.56c-.22.17-.23-.1-.02-.28.25-.22.25.11.02.28ZM36.86,13.32c-.16.22-.23.07-.11-.11.27-.4.27-.11.11.11ZM37.1,11.17c-.19.44-.28.56-.57.82-.28.25-.44.06-.28-.15.15-.21.2-.22.32-.46.12-.25.2-.46.46-.73.31-.33.26.08.07.53ZM34.84,12.44c.27-.4.27-.11.11.11-.16.22-.23.07-.11-.11ZM34.68,13.75c-.19.19-.27.06-.12-.14.33-.45.32-.06.12.14ZM35.18,13.15c.43-.71.3.13.04.48-.26.35-.19-.22-.04-.48ZM35.5,10.59c-.08.16-.25,0-.15-.23.13-.31.52-.46.42-.18-.09.28-.19.26-.27.42ZM35.86,11.77c-.13.18-.32.04-.22-.11.19-.28.35-.07.22.11ZM35.36,13.67c.66-.86.34.06.04.48-.3.42-.3-.13-.04-.48ZM35.27,15.09c.24-.31.01-.29.24-.59.31-.4.44-.26.34.02-.09.28-.12.49-.37.73-.25.24-.45.14-.21-.17ZM35.83,12.95c-.25.33-.24-.01-.05-.31.34-.55.3-.02.05.31ZM36.06,13.82c.27-.41.3-.02.08.2-.22.22-.21,0-.08-.2ZM36.26,10.92c.29-.33.32.16.03.45-.28.29-.24-.23-.03-.45ZM37.12,10.25c-.2.36-.26.26-.38.42-.12.16-.38.07-.12-.26.23-.29.7-.51.5-.16ZM36.46,10.17c-.2.26-.33.34-.46.55-.13.21-.42.16-.27-.1.11-.18.19-.4.45-.6.26-.19.48-.11.28.15ZM35.61,8.72c-.12.2-.14.33-.28.6-.14.27-.37.18-.33-.05.04-.23.27-.54.44-.76.21-.27.29.01.18.21ZM35.01,8.6c-.19.22-.25-.14-.08-.34.26-.32.27.12.08.34ZM34.53,14.16c.56-.7.48-.04.19.29-.29.32-.42,0-.19-.29ZM34.48,16.3c.26-.53.35,0,.16.26-.19.27-.3.03-.16-.26ZM34.86,18.1c-.2.2-.37.03-.2-.22.3-.42.39.02.2.22ZM34.83,14.98c.27-.36.3,0,.14.18-.15.18-.32.05-.14-.18ZM35.24,17.44c-.22.14-.29-.1-.14-.3.17-.23.19-.1.4-.51.11-.23.27-.17.21.09-.06.26-.25.59-.47.73ZM35.87,17.45c-.24.3-.26-.12-.14-.38.44-.98.37.08.14.38ZM36.13,15.58c-.14.12-.32.09-.21-.11.14-.27.35-.01.21.11ZM36.22,14.76c-.21.26-.22-.09-.12-.23.25-.35.33-.02.12.23ZM36.62,17.75c-.21.17-.28-.03-.12-.23.44-.59.34.05.12.23ZM36.61,15.36c-.27.12-.25-.08-.05-.24.29-.24.33,0,.51-.15.19-.15.34.01.08.23-.26.22-.27.04-.54.16ZM37,16.81c-.26.16-.24-.07-.05-.23.47-.4.31.07.05.23ZM37.5,15.81c-.13.14-.36-.03-.25-.19.31-.44.38.06.25.19ZM37.78,14.35c-.15.32-.41.09-.35-.18.22-.9.5-.14.35.18ZM38.09,12.04c-.02.21.01.28-.1.53-.11.25-.34.04-.25-.18.08-.23-.05-.21-.22.05-.17.26-.31.02-.19-.21.12-.23.21-.44.25-.71.05-.37.25-.23.23,0-.01.23,0,.21.11.21.11,0,.19.1.17.31ZM38.22,14.62c.32-.32.81-.69.38,0-.26.42-.7.32-.38,0ZM38.54,15.67c-.3.32-.34.02-.16-.28.44-.72.46-.05.16.28ZM38.88,15.75c-.14.18-.14.45-.31.65-.16.19-.41.16-.24-.01.18-.17.22-.5.4-.72.22-.27.28-.1.14.09ZM38.85,11.96c.18-.76.28-.06.21.21-.07.27-.29.09-.21-.21ZM39.03,12.76c.1-.67.24.05.17.24-.07.19-.2,0-.17-.24ZM39.32,14.22c-.21.39-.37.06-.16-.35.35-.7.37-.04.16.35ZM39.31,12.03c.07-.37.22-.06.18.12-.04.18-.22.1-.18-.12ZM39.37,13.07c-.05-.25-.09-.28.02-.51.15-.32.21.15.2.42-.01.27-.18.34-.22.1ZM39.47,11.08c-.14.24-.04.24-.12.47-.07.22-.16.08-.15-.07,0-.01,0-.17,0-.18.1-.6.4-.44.27-.21ZM39.17,15.96c-.24.21-.16-.1,0-.26.35-.35.24.05,0,.26ZM39.69,14.67c-.18.31-.33.04-.19-.25.49-.98.36-.06.19.25ZM42.01,12.27c-.13.34-.31,0-.14-.33.26-.53.27-.01.14.33ZM41.81,12.88c-.24.21-.19-.17.05-.34.26-.18.19.13-.05.34ZM41.85,10.57c.23-.48.28-.06.12.15-.16.2-.21.04-.12-.15ZM41.71,9.38c.29-.57.35-.1.11.26-.24.36-.24,0-.11-.26ZM42.05,8.11c.54-.88.6-.21.34.07-.26.29-.47.15-.34-.07ZM42.33,5.78c-.13.19-.3.05-.14-.16.32-.41.27-.04.14.16ZM42.23,7.05c-.14.27-.16-.06-.11-.21.11-.29.25-.06.11.21ZM42.27,3.44c-.19.21-.29-.05-.14-.24.53-.64.34.03.14.24ZM42.14,4.87c-.12.14-.26-.01-.11-.16.18-.18.23.03.11.16ZM42.14,7.31c.14-.1.33-.03-.15.55-.16.19-.58.39-.34.04.25-.35.35-.48.49-.59ZM41.75,7.49c-.14.2-.2-.09-.1-.27.11-.18.31-.32.29-.19-.02.13-.08.31-.19.47ZM41.57,3.64c-.16.22-.23.07-.11-.11.27-.41.27-.11.11.11ZM41.57,6.54c-.03.2-.1.43-.27.58-.17.14-.27-.02-.13-.17.13-.14.19-.35.23-.49.11-.41.19-.12.17.08ZM41.12,10.13c.07-.4.27-.08.21.22-.06.29-.27.13-.21-.22ZM41.03,9.46c-.28-.22.35-.24.28-.14-.06.1-.15.24-.28.14ZM41.24,8.86c-.22-.1.29-.33.27-.19-.02.14-.14.25-.27.19ZM41.02,6.87c-.22.21-.24-.03-.15-.18.19-.3.37-.03.15.18ZM40.68,4.67c-.16.19-.21-.02-.07-.21.33-.45.23.02.07.21ZM40.5,4.32c-.21.28-.29.05-.12-.26.48-.9.34-.02.12.26ZM40.52,5.43c-.08.17-.07.26.11.12.18-.14.11.23-.01.52-.12.29-.29.17-.22,0,.07-.17,0-.31-.27-.09-.27.23-.21-.02-.05-.3.27-.49.52-.43.44-.26ZM40.17,8.19c-.19.29-.32-.04-.14-.28.18-.24.33,0,.14.28ZM40.01,8.63c.13,0,.17,0,.3-.14.13-.14.34-.09.3.12-.04.21-.13.15-.32.27-.19.11-.16-.09-.31-.09-.17,0-.11-.15.03-.15ZM40.69,9.1c.19.07.15.28,0,.28s-.2.26-.49.21c-.28-.05-.28-.3-.03-.35.22-.04.33-.21.51-.14ZM39.91,11.8c.16-.21.32-.33.44-.14.12.18.21.54.04.44-.18-.1-.27-.17-.38-.05-.11.12-.24-.06-.09-.25ZM39.91,12.65c-.03-.49.31.02.27.48-.04.45-.25-.19-.27-.48ZM40.42,14.05c-.18.24-.35,0-.25-.2.35-.71.42-.04.25.2ZM40.7,12.93c-.02.27-.19.18-.2-.11-.01-.34.22-.16.2.11ZM40.8,10.54c-.21.2-.28-.19-.13-.36.25-.28.35.15.13.36ZM40.85,7.77c-.15.22-.22,0-.12-.19.2-.39.27-.03.12.19ZM41.35,13.77c-.09.17-.22.07-.15-.07.18-.35.25-.1.15.07ZM41.33,13.28c-.06.07-.22.33-.33.29-.11-.04-.02-.18.17-.37.19-.18.37-.16.16.07ZM41.3,10.86s0-.01.01-.02c.46-.68.38.06.18.28-.19.21-.29-.07-.19-.26ZM41.64,11.21c.35-.51.25.04.05.33-.19.29-.3.02-.05-.33ZM42.2,13c-.08.16-.24.3-.39.42-.15.12-.24.03-.14-.14.1-.17.24-.28.39-.43.18-.19.22-.01.14.15ZM42.28,11.89c.15-.4.27-.1.12.21-.15.3-.22.06-.12-.21ZM42.27,11.13c.22-.45.3,0,.17.17-.13.17-.28.06-.17-.17ZM42.52,12.63c-.14.26-.23-.03-.12-.21.31-.49.26-.05.12.21ZM42.41,9.83c0-.26,0-.37-.14-.14-.13.24-.21,0-.14-.38.06-.3.12-.33.15-.15.02.12.12.12.13-.02,0-.15.02-.26.1-.36,0,0,0-.01.01-.02.15-.28.29-.12.2,0-.09.13-.02.27-.09.78-.07.51-.23.54-.22.28ZM42.61,6.99c.33-.68.39-.06.19.22-.19.27-.3,0-.19-.22ZM42.86,11.91c-.12.18-.23.05-.14-.2.16-.48.27.02.14.2ZM42.96,10.12c-.16.27-.36.15-.25-.04.11-.19.16-.27.19-.51.05-.4.22-.23.22-.07s0,.35-.16.62ZM44.29,8.97c-.16.22-.23.07-.11-.11.27-.4.27-.11.11.11ZM44.39,6.89c-.11.14-.38.12-.21-.15.31-.51.32,0,.21.15ZM44.37,7.84c-.15.18-.28-.01-.14-.18.28-.36.29,0,.14.18ZM44.43,8.11c.25-.4.34-.04.14.22-.19.26-.31.06-.14-.22ZM44.75,8.75c-.12.29-.26.06-.14-.15.28-.5.26-.15.14.15ZM45.61,4.37c-.26.15-.33-.04-.15-.16.79-.55.41.02.15.16ZM45.69,2.16c.2.18-.04.31-.27.15-.53-.38.07-.33.27-.15ZM45.23,5.31c.59-.71.39-.06.09.21-.3.27-.2-.08-.09-.21ZM45.14,7.89c-.07.2-.29.14-.21-.09.11-.33.28-.11.21.09ZM44.9,5.3c-.22.19-.39-.04-.25-.16.67-.58.47-.03.25.16ZM44.54,3.16c-.24.02-.64-.14-.19-.24.27-.06.43.21.19.24ZM44.93,4.59c-.16.18-.31.05-.18-.15.27-.4.34-.04.18.15ZM43.87,2.16c.15-.08.57-.07.77.15.2.23-.06.26-.45.1-.25-.1-.47-.18-.31-.26ZM43.86,4.7c.7-.68.79-.5.7-.35-.09.15-.24.4-.54.57-.3.16-.35-.03-.16-.22ZM43.27,7.9c.7-.53.46.05.16.2-.29.15-.37-.04-.16-.2ZM43.22,8.76c-.28.26-.24-.06-.09-.24.31-.39.37-.01.09.24ZM43.05,7.52c-.13.22-.29.06-.15-.17.28-.46.28-.06.15.17ZM42.65,4.5c-.28.27-.27-.18,0-.51.48-.6.28.25,0,.51ZM42.59,1.02c.33.03.15.18-.06.22-.21.03-.15-.24.06-.22ZM42.08,1.39c.51-.02.26.15-.04.17-.31.02-.14-.16.04-.17ZM41.73,1.28c.26-.01-.05.17-.3.18-.49.02.04-.17.3-.18ZM41.18,1.71c.42-.19.7-.12.45,0-.25.12-.45.18-.59.27-.14.09-.27-.08.14-.27ZM40.96,2.97c.37-.44.2-.02-.03.24-.24.27-.11-.07.03-.24ZM40.5,3.05c.11-.17.33-.28.26-.09-.07.2-.16.4-.4.56-.33.23.03-.31.14-.48ZM40.08,5.17c-.2.12-.27-.06-.04-.21.36-.22.24.09.04.21ZM39.88,4.61c.32-.37.25,0,.07.14-.18.15-.17-.02-.07-.14ZM39.81,6.97c.23-.38.35.07.13.31-.22.24-.28-.06-.13-.31ZM39.83,13.7c-.12.18-.29.1-.21-.05.18-.37.34-.13.21.05ZM39.63,9.94c-.11.22-.27.09-.14-.17.19-.39.25-.05.14.17ZM39.36,9.18c.38-.33.2.22.01.39-.19.17-.29-.15-.01-.39ZM39.22,6.95c-.16.25-.21.02-.12-.2.12-.28.27-.05.12.2ZM39.06,5.15c-.26.26-.27,0-.05-.25.38-.44.31,0,.05.25ZM38.67,4.06c.37-.23.39-.05.2.05-.19.09-.32.02-.2-.05ZM38.04,4.74c.34-.46.66-.28.83-.41.18-.14.29-.02.02.22-.27.24-.44.08-.61.25-.17.16-.33.06-.24-.05ZM37.64,6.55c.21-.41.45-.27.44-.14-.01.14-.09.37-.32.5-.23.13-.25-.13-.12-.37ZM37.28,8.37c.27-.4.27-.11.11.11-.16.22-.23.07-.11-.11ZM37.31,9.28c.3-.41.38-.01.22.19-.16.2-.38.39-.62.43-.24.04-.23-.17-.04-.26.19-.09.31-.18.44-.37ZM36.77,6.49c.25-.41.35-.02.22.17-.12.19-.31-.02-.22-.17ZM36.8,9.19c.21-.08.33.02.08.22-.25.21-.45.02-.61.23-.17.21-.4.25-.31-.02.08-.24.17-.22.26-.39.09-.17.11-.34.21-.67.11-.33.32-.22.27-.09-.06.15.01.25-.09.48-.11.23-.02.33.19.24ZM36.44,5.77c.28-.13.37-.02.14.13-.23.15-.42.22-.58.41-.15.19-.33.15-.26,0,.23-.43.41-.42.69-.55ZM35.45,6.05c.25-.56.47-.29.36-.18-.11.11-.15.22-.23.39-.08.17-.22,0-.13-.2ZM34.74,5.87c.2-.3.34.06.18.2-.16.15-.24-.1-.18-.2ZM35.03,6.55c.1-.19.22-.06.22.16s.07.49.25.56c.18.08.35.14.36.29,0,.15-.11.14-.26.15-.15.02-.32,0-.35-.15-.04-.15-.09-.29-.35-.24-.26.05-.47-.15-.2-.29.32-.16.23-.28.33-.47ZM34.05,6.08c-.08.15-.02.26.26.08.28-.17.49.13.33.25-.16.12-.11.16-.38.37-.27.21-.47.03-.31-.11.23-.2-.02-.22-.23-.05-.21.17-.28-.06-.07-.36.21-.29.48-.33.4-.18ZM32.47,6.56c.04-.36.27-.37.22-.23-.05.14.05.11.22,0,.17-.11.22-.19.46-.36.24-.16.24,0,.09.11-.15.1-.29.32-.42.45-.13.13-.27.04-.42.2-.14.17-.17.03-.15-.17ZM32.04,6.59c.15-.15.38-.19.17.1-.12.17-.32.05-.17-.1ZM32.02,7.37c.34-.46.64-.46.49-.3-.15.16-.07.17.11.1.18-.06.32-.16.53-.36.21-.2.34-.08.25.05-.09.12-.26.21-.45.4-.2.18.06.19.33,0,.27-.2.47-.11.23.14-.24.25-.61.11-.8.33-.19.22-.38.02-.23-.18.15-.2-.15-.09-.38.11-.23.2-.25,0-.06-.27ZM31.75,8.16c-.15.15-.32.02-.6.25-.28.22-.64.15-.37-.09.27-.23.11-.31.31-.51.2-.21.33-.1.2.08-.13.18-.01.18.15.11.17-.07.59-.11.31.16ZM31.76,7.21c-.18.27-.61.4-.35.05.15-.21.53-.32.35-.05ZM31.11,7.05c.4-.37.18.08-.01.32-.19.23-.22-.11.01-.32ZM30.66,8.17c-.19.22-.2.2-.47.37-.27.17-.53.13-.24-.14.29-.27.46-.34.72-.64.26-.29.37-.02-.01.4ZM30.74,7.28c-.16.25-.05.26-.4.54-.35.28-.67.28-.41.02.26-.26.34-.33.55-.61.21-.28.52-.35.26.05ZM29.96,7.21c.33-.35.3.05.06.27-.24.22-.28-.04-.06-.27ZM30.14,6.33c.3-.07.44.04.16.09-.28.06-.35-.05-.16-.09ZM29.78,6.74c.27-.05.46-.04.25.06-.21.09-.59.23-.73.24-.57.04.21-.24.48-.29ZM29.03,7.55c.24-.2,1.01-.74.54-.2-.18.21-.22.24-.44.39-.21.15-.34,0-.11-.2ZM28.77,8.13c.28-.27.2.07-.01.23-.21.16-.24,0,.01-.23ZM28.82,8.56c.41-.37.19.17-.08.33-.27.16-.17-.1.08-.33ZM28.38,10.2c-.26.16-.34.07-.19-.08.15-.16-.13-.12-.39-.04-.26.08-.23-.07.02-.24.35-.25.4.07.74-.12.34-.19.08.33-.18.49ZM27.99,8.15c.22-.26.76-.44.39-.02-.22.25-.61.28-.39.02ZM27.87,9.14c-.14.22-.3.03-.19-.2.19-.37.33-.02.19.2ZM27.5,8.53c.19-.27.28-.06.19.07-.09.13-.28.06-.19-.07ZM27.61,10.37c.58-.22.33.12-.01.31-.34.18-.38-.16.01-.31ZM26.99,9.42c.27-.13.35.05.13.17-.22.12-.32-.08-.13-.17ZM26.38,8.64c.63-.02.18.25-.22.22-.4-.03-.12-.21.22-.22ZM25.98,10.74c.04-.12.19-.12.16,0-.03.12-.25.26-.16,0ZM25.93,12.61c-.22.32.02.34.18.16.15-.18.33-.13.18.1-.15.23-.28.2-.46.43-.18.23-.46.21-.31-.04.15-.24-.01-.36.18-.64.37-.54.46-.33.24-.01ZM25.55,9.49c-.13.12-.32,0-.18-.16.33-.36.31.04.18.16ZM25.24,8.88c.19-.25.25-.01.13.13-.12.15-.21-.03-.13-.13ZM24.41,8.25c.4-.13.25.09.05.21-.2.12-.21-.15-.05-.21ZM24.18,9.57c.26-.16.04-.17.34-.28.59-.22.64.04.43.17-.21.14-.21.15-.57.28-.35.14-.46-.01-.2-.17ZM23.92,10.57c-.05.15.02.26.3.07.27-.18.24.13-.09.46-.33.33-.41.13-.31-.01.11-.15-.14-.1-.41.09-.27.19-.2-.05-.02-.3.39-.54.58-.46.53-.32ZM22.91,10.41c.26-.5.48-.35.37-.21-.12.15-.11.34-.32.55-.21.21-.2-.04-.05-.34ZM21.59,8.69c.53-.33.38.06.08.22-.3.16-.36-.04-.08-.22ZM21.75,9.31c-.15.07-.37,0-.12-.15.33-.19.27.08.12.15ZM20.76,10.57c.17-.25.31-.18.51-.28.26-.13.39.05.6-.15.21-.2.47-.15.21.09-.26.23-.35.44-.52.62-.16.18-.48.15-.09-.29.16-.18-.26-.11-.6.25-.18.19-.28.01-.11-.24ZM21.47,11.5c-.16.22-.24-.03-.14-.17.26-.37.31-.05.14.17ZM19.42,9.59c.5-.45.71-.28.52-.1-.19.18-.18.18-.45.37-.27.18-.35-.02-.07-.27ZM19.09,13.44c-.18.06-.27-.09,0-.17.27-.08.19.1,0,.17ZM19.03,11.7c-.19.2-.26-.05-.04-.24.43-.37.23.04.04.24ZM19.08,10.22c-.19.15-.49.22-.68.39-.19.16-.3,0-.11-.16.19-.17.34-.15.49-.25.15-.1.56-.18.3.02ZM18.66,10.8c-.17.12-.27,0-.13-.1.34-.27.3-.02.13.1ZM18.48,13.42c-.25.06-.35-.03-.06-.16.63-.28.31.09.06.16ZM18.59,8.89c.25-.04.49.08-.02.19-.13.03-.23-.16.02-.19ZM18.25,9.32c.67-.14.42.08.18.17-.25.08-.41-.12-.18-.17ZM18.26,11.12c.58-.33.45.07.15.17-.31.1-.39-.03-.15-.17ZM16.76,10.74c.95-.76.42.11.09.33-.33.22-.43-.06-.09-.33ZM15.83,12.83c-.31.15-.4-.16-.02-.35.6-.31.33.21.02.35ZM15.77,9.91c.29-.02.17.16.02.16s-.19-.15-.02-.16ZM15.47,10.27c.64-.17.39.15.06.22-.33.07-.35-.14-.06-.22ZM15.26,11.11c.54-.28.27.04.02.18-.25.15-.23-.07-.02-.18ZM11.33,11.46c.57-.27.39.15.07.27-.32.12-.45-.09-.07-.27ZM9.83,12.79c.42-.43.96-.28,1.29-.24.33.03.53-.3.91-.3.38,0,.66-.24.84-.44.18-.2.41-.32.65-.34.24-.03.15.18-.02.2-.18.01-.44.24-.15.31.28.07.86-.21,1.14-.38.28-.17.51-.07.19.14-.32.22-.99.48-1.39.43-.4-.05-.65.26-1.14.31-.5.05-.53.3-.93.29-.4-.01-.73-.16-1.03,0-.31.16-.49.18-.34.02ZM11.97,13.04c-.37.16-.35-.12-.02-.22,1.1-.31.39.06.02.22ZM5.68,14.48c-.27.11-.24-.18.02-.23.52-.1.25.12-.02.23ZM5.86,13.96c-.34-.01-.24-.09.2-.12.44-.04.79-.23,1.21-.48.43-.24.72-.27,1.04-.26.32.01.31.16.02.18-.28.02-.85.13-1.24.34-.39.21-.86.34-1.24.33ZM7.13,14.66c-.27.09-.53.03-.19-.13.92-.44.46.05.19.13ZM9.76,14c-.47-.01-.07-.11-1.32-.07-.4.01-.74.01-1.04.18-.29.17-.63.17-.33-.01.42-.26.54-.47,1.2-.43.66.04,1,.01,1.4-.2.4-.21.61-.24.86-.28.25-.04.18.08-.09.18-.27.1-.41.16-.54.29-.13.12-.02.15.21.05.24-.1.54-.05.86-.23.32-.18.98-.11,1.27-.23.29-.12.38.02.06.15-.32.12-.81.04-1.13.21-.32.17-.46.23-.73.28-.27.05-.22.13-.7.12ZM11.3,14.72c-.28.1-.63-.25-.28-.27.9-.05.57.17.28.27ZM12.13,14.32c-.44-.02-.62-.11-.39-.21.27-.11.4-.05.61-.1.21-.05.4-.06.39.11-.01.17-.23.22-.61.2ZM12.87,12.71c1.33-.4.39.11.03.2-.35.09-.24-.14-.03-.2ZM13.59,14.05c-.21.11-.41,0-.21-.12.52-.32.42.01.21.12ZM14.59,14.32c-.13.12-.33.14-.58.26-.25.12-.4-.01-.05-.2.5-.26.75-.18.63-.06ZM15.48,13.6c-.59-.04-.78.07-1.11.22-.33.15-.32,0-.13-.13.55-.4.97-.34,1.36-.3.39.04.71-.16,1.01-.33.31-.17.39-.01.15.16-.24.17-.7.43-1.29.39ZM16.66,14.38c-.49.28-.39-.05.05-.3,1.86-1.07.54-.04-.05.3ZM17.93,12.45c.94-.29.6.18-.25.34-.85.16-.32-.17.25-.34ZM17.8,14.14c.25-.22.49-.47.82-.51.34-.05.33.16.16.19-.17.04-.41.18-.66.39-.25.21-.59.17-.32-.07ZM19.01,15.04c-.41.22-.52-.05-.19-.29.77-.58.6.07.19.29ZM19.67,11.43c-.3.27-.26-.16.07-.42.74-.6.23.15-.07.42ZM21.13,17.04c-.28.17-.4-.03-.28-.07.39-.15.57-.09.28.07ZM21.28,16.45c-.14.22-.21.27-.62.37-.41.09-.29-.22.12-.33.35-.09.64-.26.5-.04ZM21.27,12.83c.41-.5.44.15.14.43-.29.28-.41-.1-.14-.43ZM21.61,16.71c-.23.18-.19-.09-.04-.2.58-.4.27.02.04.2ZM21.76,14.92c-.25.26-.31-.01-.12-.29.39-.58.37.04.12.29ZM21.91,10.81c.48-.56.39-.11.14.2-.25.3-.34.03-.14-.2ZM22.18,11.85c.4-.38.87-.43.54-.11-.24.23-.94.49-.54.11ZM22.36,13.44c.85-.55.47-.06.26.11-.21.17-.47.02-.26-.11ZM22.87,19.84c-.19.22-.35-.04-.19-.2.18-.18.39-.02.19.2ZM23.13,15c.57-.84.54.06.07.58-.47.51-.4-.09-.07-.58ZM23.31,18.52c-.2.18-.31-.13-.16-.28.32-.29.35.09.16.28ZM23.59,16.83c-.16.22-.23.07-.11-.11.27-.4.27-.11.11.11ZM23.88,14c.25-.27.27.07.05.29-.21.22-.23-.1-.05-.29ZM24.04,22.54c.52-.78.52.15.99.48.47.33.72-.06,1.81.94,1.09,1,2.43,1.95,2.95,2.39.52.44-.16.94.41,1.22.26.13.59.36.64.68.03.18-.06.35-.18.48-.23.24-.51.42-.84.41-.44,0-.89-.07-1.32-.18-1.71-.44-.98-1.61-2.85-2.89-.83-1.17-2.14-2.76-1.62-3.54ZM31.66,31.6c-.29.06-.29.12-.54.09-.25-.04-.06.1-.22.09-.17-.01-.28.11-.46.23-.18.12-.28.07-.13-.11.18-.21.46-.43.73-.46.27-.04.37-.12.64-.23.27-.11.37-.02.39.09.02.11-.11.25-.4.32ZM32.37,32.8c-.09-.52.27-.2.27,0s-.23.23-.27,0ZM41.98,26.5c-.17.15-.24.06-.38.13-.14.07-.25.1-.43.17-.25.11-.96.49-1.48.67-.52.18-.71.12-.99.26-.28.15-.65.06-.85.16-.2.1-.14-.06-.39,0-.25.06-.2.08-.52.1-.32.01-1.06.39-1.83.66-.67.23-2.09.68-2.63.96-.26.13-.46.27-.59.39-.13.12-.31-.02-.48.12-.18.15-.25-.03-.48.11-.24.13-.66.16-1.2.28-1.26.28-4.24.93-5.26,1.42-.46.22-.61.11-.17-.12.96-.49,3.36-1.43,4.76-1.67,1.4-.23,2.24-.41,3.75-1.17,1.51-.76,3.69-1.17,4.13-1.26.44-.09,1.54-.09,2.11-.25.64-.18,2.08-.79,2.68-1.07.3-.14.42-.03.26.12ZM42.75,27c-.13.23-.39.26-.35.03.13-.62.47-.26.35-.03ZM43.63,27.16c-.19.26-.34.19-.28-.03.13-.49.47-.23.28.03ZM43.9,25.82c-.74.29-1.8.34-.81-.08.84-.36,1.56-.21.81.08ZM45.18,26.4c-.16.18-.31.15-.21-.02.25-.44.37-.17.21.02ZM46.87,26.94c-.05.29-.26.17-.21-.1.07-.37.26-.2.21.1ZM47.75,26.23c0-.53.4-.14.39.18,0,.32-.39.14-.39-.18ZM49.21,27.07c-.23.32-.37-.05-.21-.24.31-.35.44-.08.21.24ZM49.96,26.03c.34-.59.49-.11.21.27-.29.38-.39.05-.21-.27ZM50.6,27.64c-.09.35-.49.09-.44-.23.09-.64.53-.12.44.23ZM51.12,25.28c-.44-.16-.93-.17-1.52-.4-.59-.23-1.05-.5-1.53-.34-.48.16-.75-.03-1.03.11-.45.23-.32.35-.48.46-.34.22-.56-.09-.12-.33.18-.1.25-.13.36-.25.24-.28.29-.31.62-.31.29,0,.57-.15.89-.17.4-.01.86.08,1.3.27.78.33.93.38,1.44.66.51.28.95.11,1.26.04.31-.07.46.07.19.17-.27.1-.93.26-1.37.1ZM52.29,27.55c-.22.11-.29-.07-.06-.25.41-.32.27.15.06.25ZM52.72,27.96c-.16.26-.3.07-.18-.2.2-.45.34-.06.18.2ZM53.09,27.19c-.05.32-.28.05-.28-.17,0-.44.33-.15.28.17ZM53.45,25.52c-.22.25-.45.17-.34-.08.29-.66.56-.18.34.08ZM53.4,24.56c-.32-.86.2-.3.2-.07s-.1.33-.2.07Z"></path></g></svg>